<mxfile host="app.diagrams.net" modified="2021-02-17T16:47:29.692Z" agent="5.0 (Macintosh; Intel Mac OS X 10_15_7) AppleWebKit/537.36 (KHTML, like Gecko) Chrome/88.0.4324.150 Safari/537.36" etag="FoF8Z7fqwsjTeXOhsfNb" version="14.3.0" type="github">
  <diagram id="StkFhzEeYiJSLVLtpzUl" name="Page-1">
    <mxGraphModel dx="946" dy="580" grid="1" gridSize="10" guides="1" tooltips="1" connect="1" arrows="1" fold="1" page="1" pageScale="1" pageWidth="827" pageHeight="1169" math="0" shadow="0">
      <root>
        <mxCell id="0" />
        <mxCell id="1" parent="0" />
        <mxCell id="iw1Akck7Xow2uvjUVNA3-1" value="&lt;font style=&quot;font-size: 14px&quot;&gt;Native Method Stacks&lt;br&gt;（本地方法栈）&lt;/font&gt;" style="rounded=1;whiteSpace=wrap;html=1;fillColor=#e1d5e7;strokeColor=#9673a6;" parent="1" vertex="1">
          <mxGeometry x="34" y="30" width="380" height="50" as="geometry" />
        </mxCell>
        <mxCell id="iw1Akck7Xow2uvjUVNA3-2" value="&lt;font style=&quot;font-size: 14px&quot;&gt;Program Counter Register&lt;br&gt;（程序计数器）&lt;/font&gt;" style="rounded=1;whiteSpace=wrap;html=1;fillColor=#ffe6cc;strokeColor=#d79b00;" parent="1" vertex="1">
          <mxGeometry x="424" y="30" width="370" height="50" as="geometry" />
        </mxCell>
        <mxCell id="iw1Akck7Xow2uvjUVNA3-3" value="" style="rounded=1;whiteSpace=wrap;html=1;fillColor=#e1d5e7;strokeColor=#9673a6;" parent="1" vertex="1">
          <mxGeometry x="33" y="90" width="761" height="90" as="geometry" />
        </mxCell>
        <mxCell id="iw1Akck7Xow2uvjUVNA3-4" value="&lt;font style=&quot;font-size: 14px&quot;&gt;&lt;span&gt;JVM Stacks&lt;/span&gt;&lt;br&gt;&lt;span&gt;（ 虚拟机栈 ）&lt;/span&gt;&lt;/font&gt;" style="text;html=1;align=center;verticalAlign=middle;resizable=0;points=[];autosize=1;" parent="1" vertex="1">
          <mxGeometry x="20" y="115" width="110" height="40" as="geometry" />
        </mxCell>
        <mxCell id="iw1Akck7Xow2uvjUVNA3-5" value="&lt;font style=&quot;font-size: 10px&quot;&gt;局部变量表&lt;/font&gt;" style="rounded=0;whiteSpace=wrap;html=1;strokeColor=#56517e;fillColor=#D6D4E8;" parent="1" vertex="1">
          <mxGeometry x="124" y="140" width="70" height="20" as="geometry" />
        </mxCell>
        <mxCell id="iw1Akck7Xow2uvjUVNA3-13" value="&lt;font style=&quot;font-size: 10px&quot;&gt;操作栈&lt;/font&gt;" style="rounded=0;whiteSpace=wrap;html=1;strokeColor=#56517e;fillColor=#D6D4E8;" parent="1" vertex="1">
          <mxGeometry x="204" y="140" width="40" height="20" as="geometry" />
        </mxCell>
        <mxCell id="iw1Akck7Xow2uvjUVNA3-14" value="&lt;font style=&quot;font-size: 10px&quot;&gt;动态链接&lt;/font&gt;" style="rounded=0;whiteSpace=wrap;html=1;strokeColor=#56517e;fillColor=#D6D4E8;" parent="1" vertex="1">
          <mxGeometry x="254" y="140" width="50" height="20" as="geometry" />
        </mxCell>
        <mxCell id="iw1Akck7Xow2uvjUVNA3-15" value="&lt;font style=&quot;font-size: 10px&quot;&gt;方法返回地址&lt;/font&gt;" style="rounded=0;whiteSpace=wrap;html=1;strokeColor=#56517e;fillColor=#D6D4E8;" parent="1" vertex="1">
          <mxGeometry x="314" y="140" width="80" height="20" as="geometry" />
        </mxCell>
        <mxCell id="iw1Akck7Xow2uvjUVNA3-16" value="&lt;font style=&quot;font-size: 10px&quot;&gt;局部变量表&lt;/font&gt;" style="rounded=0;whiteSpace=wrap;html=1;strokeColor=#56517e;fillColor=#D6D4E8;" parent="1" vertex="1">
          <mxGeometry x="424" y="140" width="70" height="20" as="geometry" />
        </mxCell>
        <mxCell id="iw1Akck7Xow2uvjUVNA3-17" value="&lt;font style=&quot;font-size: 10px&quot;&gt;操作栈&lt;/font&gt;" style="rounded=0;whiteSpace=wrap;html=1;strokeColor=#56517e;fillColor=#D6D4E8;" parent="1" vertex="1">
          <mxGeometry x="504" y="140" width="40" height="20" as="geometry" />
        </mxCell>
        <mxCell id="iw1Akck7Xow2uvjUVNA3-18" value="&lt;font style=&quot;font-size: 10px&quot;&gt;动态链接&lt;/font&gt;" style="rounded=0;whiteSpace=wrap;html=1;strokeColor=#56517e;fillColor=#D6D4E8;" parent="1" vertex="1">
          <mxGeometry x="554" y="140" width="50" height="20" as="geometry" />
        </mxCell>
        <mxCell id="iw1Akck7Xow2uvjUVNA3-19" value="&lt;font style=&quot;font-size: 10px&quot;&gt;方法返回地址&lt;/font&gt;" style="rounded=0;whiteSpace=wrap;html=1;strokeColor=#56517e;fillColor=#D6D4E8;" parent="1" vertex="1">
          <mxGeometry x="614" y="140" width="80" height="20" as="geometry" />
        </mxCell>
        <mxCell id="iw1Akck7Xow2uvjUVNA3-20" value="栈帧-1（方法A）" style="text;html=1;align=center;verticalAlign=middle;resizable=0;points=[];autosize=1;" parent="1" vertex="1">
          <mxGeometry x="194" y="110" width="110" height="20" as="geometry" />
        </mxCell>
        <mxCell id="iw1Akck7Xow2uvjUVNA3-21" value="" style="endArrow=none;dashed=1;html=1;strokeColor=#FFFFFF;" parent="1" edge="1">
          <mxGeometry width="50" height="50" relative="1" as="geometry">
            <mxPoint x="134" y="100" as="sourcePoint" />
            <mxPoint x="134" y="100" as="targetPoint" />
            <Array as="points">
              <mxPoint x="114" y="100" />
              <mxPoint x="114" y="170" />
              <mxPoint x="404" y="170" />
              <mxPoint x="404" y="100" />
            </Array>
          </mxGeometry>
        </mxCell>
        <mxCell id="iw1Akck7Xow2uvjUVNA3-22" value="栈帧-2（方法B）" style="text;html=1;align=center;verticalAlign=middle;resizable=0;points=[];autosize=1;" parent="1" vertex="1">
          <mxGeometry x="504" y="110" width="110" height="20" as="geometry" />
        </mxCell>
        <mxCell id="iw1Akck7Xow2uvjUVNA3-23" value="" style="endArrow=none;dashed=1;html=1;strokeColor=#FFFFFF;" parent="1" edge="1">
          <mxGeometry width="50" height="50" relative="1" as="geometry">
            <mxPoint x="434" y="100" as="sourcePoint" />
            <mxPoint x="434" y="100" as="targetPoint" />
            <Array as="points">
              <mxPoint x="414" y="100" />
              <mxPoint x="414" y="170" />
              <mxPoint x="704" y="170" />
              <mxPoint x="704" y="100" />
            </Array>
          </mxGeometry>
        </mxCell>
        <mxCell id="iw1Akck7Xow2uvjUVNA3-24" value="" style="endArrow=none;dashed=1;html=1;strokeColor=#FFFFFF;" parent="1" edge="1">
          <mxGeometry width="50" height="50" relative="1" as="geometry">
            <mxPoint x="734" y="100" as="sourcePoint" />
            <mxPoint x="734" y="100" as="targetPoint" />
            <Array as="points">
              <mxPoint x="714" y="100" />
              <mxPoint x="714" y="170" />
              <mxPoint x="784" y="170" />
              <mxPoint x="784" y="100" />
            </Array>
          </mxGeometry>
        </mxCell>
        <mxCell id="iw1Akck7Xow2uvjUVNA3-25" value="栈帧-3&lt;br&gt;...&lt;br&gt;方法C&lt;br&gt;..." style="text;html=1;align=center;verticalAlign=middle;resizable=0;points=[];autosize=1;" parent="1" vertex="1">
          <mxGeometry x="724" y="105" width="50" height="60" as="geometry" />
        </mxCell>
        <mxCell id="iw1Akck7Xow2uvjUVNA3-26" value="" style="rounded=1;whiteSpace=wrap;html=1;fillColor=#d5e8d4;strokeColor=#82b366;" parent="1" vertex="1">
          <mxGeometry x="34" y="190" width="370" height="140" as="geometry" />
        </mxCell>
        <mxCell id="iw1Akck7Xow2uvjUVNA3-27" value="" style="rounded=0;whiteSpace=wrap;html=1;strokeColor=#666666;fontColor=#333333;fillColor=#E0E0E0;" parent="1" vertex="1">
          <mxGeometry x="44" y="230" width="210" height="90" as="geometry" />
        </mxCell>
        <mxCell id="iw1Akck7Xow2uvjUVNA3-28" value="Old区&lt;br&gt;（老年代）" style="rounded=0;whiteSpace=wrap;html=1;fillColor=#fff2cc;strokeColor=#d6b656;" parent="1" vertex="1">
          <mxGeometry x="264" y="230" width="130" height="90" as="geometry" />
        </mxCell>
        <mxCell id="iw1Akck7Xow2uvjUVNA3-29" value="&lt;font style=&quot;font-size: 14px&quot;&gt;Heap（ 堆区 ）&lt;/font&gt;" style="text;html=1;align=center;verticalAlign=middle;resizable=0;points=[];autosize=1;" parent="1" vertex="1">
          <mxGeometry x="164" y="200" width="110" height="20" as="geometry" />
        </mxCell>
        <mxCell id="iw1Akck7Xow2uvjUVNA3-30" value="Eden" style="rounded=0;whiteSpace=wrap;html=1;fillColor=#F5F5F5;" parent="1" vertex="1">
          <mxGeometry x="54" y="240" width="90" height="30" as="geometry" />
        </mxCell>
        <mxCell id="iw1Akck7Xow2uvjUVNA3-32" value="S0" style="rounded=0;whiteSpace=wrap;html=1;fillColor=#F5F5F5;" parent="1" vertex="1">
          <mxGeometry x="154" y="240" width="40" height="30" as="geometry" />
        </mxCell>
        <mxCell id="iw1Akck7Xow2uvjUVNA3-33" value="S0" style="rounded=0;whiteSpace=wrap;html=1;fillColor=#F5F5F5;" parent="1" vertex="1">
          <mxGeometry x="204" y="240" width="40" height="30" as="geometry" />
        </mxCell>
        <mxCell id="iw1Akck7Xow2uvjUVNA3-34" value="Young区（ 新生代 ）" style="text;html=1;align=center;verticalAlign=middle;resizable=0;points=[];autosize=1;" parent="1" vertex="1">
          <mxGeometry x="84" y="280" width="130" height="20" as="geometry" />
        </mxCell>
        <mxCell id="iw1Akck7Xow2uvjUVNA3-35" value="" style="rounded=1;whiteSpace=wrap;html=1;fillColor=#dae8fc;strokeColor=#6c8ebf;" parent="1" vertex="1">
          <mxGeometry x="414" y="190" width="270" height="140" as="geometry" />
        </mxCell>
        <mxCell id="iw1Akck7Xow2uvjUVNA3-36" value="CodeCache&lt;br&gt;JIT编译产物" style="rounded=1;whiteSpace=wrap;html=1;fillColor=#f8cecc;strokeColor=#b85450;" parent="1" vertex="1">
          <mxGeometry x="694" y="190" width="100" height="140" as="geometry" />
        </mxCell>
        <mxCell id="iw1Akck7Xow2uvjUVNA3-37" value="常量池" style="rounded=0;whiteSpace=wrap;html=1;strokeColor=#006EAF;fontColor=#ffffff;fillColor=#1788BF;" parent="1" vertex="1">
          <mxGeometry x="424" y="230" width="120" height="40" as="geometry" />
        </mxCell>
        <mxCell id="iw1Akck7Xow2uvjUVNA3-38" value="方法元信息" style="rounded=0;whiteSpace=wrap;html=1;strokeColor=#006EAF;fontColor=#ffffff;fillColor=#1788BF;" parent="1" vertex="1">
          <mxGeometry x="424" y="280" width="120" height="40" as="geometry" />
        </mxCell>
        <mxCell id="iw1Akck7Xow2uvjUVNA3-41" value="kiass&lt;br&gt;类元信息" style="rounded=0;whiteSpace=wrap;html=1;strokeColor=#006EAF;fontColor=#ffffff;fillColor=#1788BF;" parent="1" vertex="1">
          <mxGeometry x="554" y="230" width="120" height="90" as="geometry" />
        </mxCell>
        <mxCell id="iw1Akck7Xow2uvjUVNA3-42" value="&lt;font style=&quot;font-size: 14px&quot;&gt;Metaspace（ 元数据区 ）&lt;/font&gt;" style="text;html=1;align=center;verticalAlign=middle;resizable=0;points=[];autosize=1;" parent="1" vertex="1">
          <mxGeometry x="459" y="200" width="180" height="20" as="geometry" />
        </mxCell>
      </root>
    </mxGraphModel>
  </diagram>
</mxfile>
